# xmcd
#
# Track frame offsets:
#	150
#	16031
#	28809
#	41959
#	57407
#	72318
#	81765
#	101064
#	116686
#	130722
#	142806
#	157530
#	169803
#
# Disc length: 2435 seconds
#
# Revision: 0
# Processed by: cddbd v1.5.2PL0 Copyright (c) Steve Scherf et al.
# Submitted via: EZCDAudioConverter 4.0.8.1
#
DISCID=a509810d
DTITLE=Molsky's Mountain Drifters
DYEAR=2016
DGENRE=Old-Time Country
TTITLE0=Across the Plains of Illinois
TTITLE1=The Flowers of Edinburgh
TTITLE2=Barlow Knife
TTITLE3=Between the Wars
TTITLE4=Granddad's Favorite and Flatwoods
TTITLE5=The Dreary Black Hills
TTITLE6=Metis Set
TTITLE7=Free a Little Bird
TTITLE8=Isambard's Waltz
TTITLE9=Old Kimball
TTITLE10=Down the Road Somewhere
TTITLE11=The Old Jawbone
TTITLE12=Pateroller Tune
EXTD=
EXTT0=
EXTT1=
EXTT2=
EXTT3=
EXTT4=
EXTT5=
EXTT6=
EXTT7=
EXTT8=
EXTT9=
EXTT10=
EXTT11=
EXTT12=
PLAYORDER=
